<?xml version="1.0" encoding="utf-8"?>
<!-- Generator: Adobe Illustrator 16.0.0, SVG Export Plug-In . SVG Version: 6.00 Build 0)  -->
<!DOCTYPE svg PUBLIC "-//W3C//DTD SVG 1.1//EN" "http://www.w3.org/Graphics/SVG/1.1/DTD/svg11.dtd">
<svg version="1.1" id="Layer_1" xmlns="http://www.w3.org/2000/svg" xmlns:xlink="http://www.w3.org/1999/xlink" x="0px" y="0px"
	 width="230.5px" height="77px" viewBox="0 58.5 230.5 77" enable-background="new 0 58.5 230.5 77" xml:space="preserve">
<path fill="#FFFFFF" d="M54.604,74.539c-0.252,0-0.503-0.061-0.724-0.187c-6.027-3.108-11.239-4.427-17.487-4.427
	c-6.216,0-12.117,1.475-17.485,4.427c-0.753,0.407-1.695,0.126-2.135-0.629c-0.408-0.754-0.125-1.726,0.628-2.134
	c5.839-3.171,12.243-4.804,18.992-4.804c6.689,0,12.526,1.475,18.931,4.772c0.785,0.407,1.067,1.35,0.659,2.103
	C55.701,74.227,55.168,74.539,54.604,74.539z M9.679,91.021c-0.314,0-0.628-0.094-0.91-0.281c-0.722-0.503-0.878-1.475-0.377-2.197
	c3.109-4.395,7.064-7.848,11.773-10.266c9.857-5.086,22.478-5.116,32.367-0.032c4.709,2.417,8.664,5.839,11.772,10.203
	c0.503,0.691,0.344,1.695-0.38,2.198c-0.721,0.501-1.692,0.345-2.195-0.377c-2.826-3.957-6.404-7.063-10.644-9.229
	c-9.008-4.615-20.53-4.615-29.508,0.03c-4.269,2.198-7.849,5.338-10.674,9.292C10.652,90.802,10.182,91.021,9.679,91.021z
	 M29.3,128.913c-0.408,0-0.815-0.156-1.1-0.469c-2.731-2.734-4.206-4.491-6.309-8.29c-2.166-3.862-3.298-8.571-3.298-13.624
	c0-9.324,7.975-16.921,17.77-16.921s17.769,7.597,17.769,16.921c0,0.877-0.692,1.569-1.569,1.569c-0.88,0-1.57-0.692-1.57-1.569
	c0-7.597-6.561-13.782-14.629-13.782c-8.067,0-14.63,6.186-14.63,13.782c0,4.519,1.006,8.694,2.92,12.085
	c2.01,3.611,3.391,5.15,5.809,7.597c0.596,0.629,0.596,1.601,0,2.232C30.115,128.757,29.707,128.913,29.3,128.913z M51.808,123.104
	c-3.733,0-7.032-0.938-9.73-2.793c-4.678-3.17-7.473-8.317-7.473-13.78c0-0.88,0.691-1.569,1.57-1.569
	c0.88,0,1.569,0.689,1.569,1.569c0,4.427,2.261,8.603,6.09,11.175c2.229,1.508,4.835,2.229,7.974,2.229
	c0.755,0,2.012-0.092,3.266-0.312c0.849-0.156,1.664,0.407,1.821,1.287c0.156,0.847-0.408,1.662-1.288,1.821
	C53.819,123.073,52.249,123.104,51.808,123.104z M45.499,129.572c-0.126,0-0.282-0.03-0.411-0.062
	c-4.991-1.383-8.255-3.234-11.676-6.594c-4.395-4.363-6.812-10.17-6.812-16.387c0-5.086,4.331-9.23,9.669-9.23
	c5.336,0,9.668,4.145,9.668,9.23c0,3.36,2.921,6.089,6.529,6.089s6.53-2.729,6.53-6.089c0-11.835-10.203-21.441-22.76-21.441
	c-8.915,0-17.078,4.96-20.751,12.65c-1.225,2.543-1.853,5.526-1.853,8.791c0,2.446,0.221,6.31,2.104,11.331
	c0.312,0.818-0.096,1.729-0.91,2.011c-0.817,0.312-1.729-0.125-2.01-0.91c-1.539-4.111-2.292-8.195-2.292-12.432
	c0-3.768,0.722-7.189,2.136-10.172c4.174-8.759,13.436-14.441,23.575-14.441c14.283,0,25.899,11.02,25.899,24.583
	c0,5.083-4.332,9.228-9.67,9.228c-5.337,0-9.669-4.145-9.669-9.228c0-3.36-2.919-6.092-6.528-6.092c-3.611,0-6.53,2.731-6.53,6.092
	c0,5.364,2.071,10.39,5.869,14.157c2.983,2.949,5.841,4.583,10.265,5.807c0.849,0.221,1.321,1.098,1.101,1.916
	C46.817,129.101,46.158,129.572,45.499,129.572z"/>
<path fill="none" d="M0,0h24v24H0V0z"/>
<text transform="matrix(1 0 0 1 73.5 115.75)" fill="#FFFFFF" font-family="'AbadiMT-CondensedLight'" font-size="74">cause</text>
</svg>
